<svg width="80" height="80" viewBox="0 0 80 80" fill="none" xmlns="http://www.w3.org/2000/svg">
<path d="M21.668 23.333H58.3346" stroke="#806E2D" stroke-width="4" stroke-linecap="round" stroke-linejoin="round"/>
<path d="M20 66.6667V60C20 54.6957 22.1071 49.6086 25.8579 45.8579C29.6086 42.1071 34.6957 40 40 40C45.3043 40 50.3914 42.1071 54.1421 45.8579C57.8929 49.6086 60 54.6957 60 60V66.6667C60 67.5507 59.6488 68.3986 59.0237 69.0237C58.3986 69.6488 57.5507 70 56.6667 70H23.3333C22.4493 70 21.6014 69.6488 20.9763 69.0237C20.3512 68.3986 20 67.5507 20 66.6667Z" stroke="#806E2D" stroke-width="4" stroke-linecap="round" stroke-linejoin="round"/>
<path d="M20 13.3333V20C20 25.3043 22.1071 30.3914 25.8579 34.1421C29.6086 37.8929 34.6957 40 40 40C45.3043 40 50.3914 37.8929 54.1421 34.1421C57.8929 30.3914 60 25.3043 60 20V13.3333C60 12.4493 59.6488 11.6014 59.0237 10.9763C58.3986 10.3512 57.5507 10 56.6667 10H23.3333C22.4493 10 21.6014 10.3512 20.9763 10.9763C20.3512 11.6014 20 12.4493 20 13.3333Z" stroke="#806E2D" stroke-width="4" stroke-linecap="round" stroke-linejoin="round"/>
</svg>
