<svg width="80" height="80" viewBox="0 0 80 80" fill="none" xmlns="http://www.w3.org/2000/svg">
<path d="M40 10C42.6522 10 45.1957 11.0536 47.0711 12.9289C48.9464 14.8043 50 17.3478 50 20C50 23.71 48 28.2733 45 30L50 53.3333H30L35 30C32 28.2733 30 23.71 30 20C30 17.3478 31.0536 14.8043 32.9289 12.9289C34.8043 11.0536 37.3478 10 40 10Z" stroke="#806E2D" stroke-width="4" stroke-linecap="round" stroke-linejoin="round"/>
<path d="M26.668 30H53.3346" stroke="#806E2D" stroke-width="4" stroke-linecap="round" stroke-linejoin="round"/>
<path d="M22.28 55.9063C21.616 56.1275 21.0384 56.5521 20.6292 57.1198C20.22 57.6876 19.9998 58.3698 20 59.0697V63.333C20 64.2171 20.3512 65.0649 20.9763 65.69C21.6014 66.3152 22.4493 66.6663 23.3333 66.6663H56.6667C57.5507 66.6663 58.3986 66.3152 59.0237 65.69C59.6488 65.0649 60 64.2171 60 63.333V59.0663C59.9995 58.367 59.779 57.6856 59.3698 57.1185C58.9607 56.5514 58.3835 56.1273 57.72 55.9063L50 53.333H30L22.28 55.9063Z" stroke="#806E2D" stroke-width="4" stroke-linecap="round" stroke-linejoin="round"/>
</svg>
