<svg fill="none" xmlns="http://www.w3.org/2000/svg">
<path d="M49.9501 57.0019C49.9501 55.4737 49.9501 53.9605 49.9501 52.4473C49.9413 50.3155 48.8032 48.9168 46.7027 48.5111C46.3174 48.4377 46.2459 48.2373 46.2008 47.9374C45.6135 44.2265 44.1491 40.8901 41.6671 38.059C40.5504 36.7847 39.2278 35.6784 37.9391 34.5646C36.4558 33.3125 35.1804 31.8368 34.1596 30.1916C35.5324 29.7162 36.8825 29.6727 38.0872 30.4169C39.1387 31.0652 40.0949 31.8928 41.0184 32.7154C41.9106 33.5168 42.8655 34.1191 44.0801 34.2634C45.7779 34.4713 47.2021 33.92 48.4017 32.744C49.3219 31.8405 50.2387 30.9312 51.1522 30.0162C52.8876 28.2739 52.8901 26.1011 51.1459 24.3477C49.6042 22.7971 48.0512 21.2573 46.4868 19.7283C46.1537 19.4223 45.9441 19.0065 45.8971 18.5586C45.429 14.9161 42.5091 11.8946 38.8702 11.2163C38.7886 11.2014 38.7083 11.1802 38.5339 11.1429V10.4958C38.5339 8.48478 38.5339 6.47251 38.5339 4.46025C38.5339 3.3278 38.0784 2.87607 36.929 2.88105C34.5662 2.891 32.1996 2.83127 29.8431 2.95322C26.5354 3.12496 23.5326 4.32211 20.7482 6.03696C16.3426 8.75358 12.991 12.4247 10.7512 17.0802C9.49637 19.6935 8.84387 22.4624 8.41598 25.2935C7.56898 30.9047 8.28297 36.369 10.0322 41.7202C10.2894 42.5589 10.6659 42.8414 11.5442 42.8501C13.5092 42.8501 15.4755 42.8613 17.4418 42.8426C17.8471 42.8426 18.0065 42.9534 18.1131 43.3603C18.5109 44.886 18.659 46.4154 18.4043 47.9785C18.3528 48.2958 18.2612 48.4762 17.9023 48.5497C15.9749 48.9479 14.8356 50.3529 14.8067 52.3079C14.7908 53.7183 14.7908 55.1286 14.8067 56.539C14.813 56.9123 14.695 57.0766 14.3437 57.2085C11.3171 58.3434 9.4399 60.4864 8.73345 63.6186C8.61617 64.1656 8.55064 64.7222 8.5377 65.2812C8.51385 66.0553 9.01704 66.558 9.80505 66.619C9.97194 66.6327 10.1401 66.619 10.307 66.619H54.4223C55.8904 66.619 56.3346 66.1212 56.1715 64.6739C55.7649 61.0418 53.8496 58.5529 50.4257 57.2073C50.2726 57.1438 50.122 57.0753 49.9501 57.0019ZM20.8612 48.4153C21.5337 45.1797 20.3994 42.2515 19.4871 39.2848C18.7681 36.9452 18.083 34.5994 17.8735 32.1454C17.5987 28.921 17.8735 25.7228 18.9877 22.7013C20.7909 17.8019 24.4763 14.9148 29.557 13.7413C30.7365 13.4688 30.9988 13.1664 30.9988 11.9493C30.9988 10.6003 30.9862 9.2526 30.9988 7.90362C31.0163 6.63056 31.8269 5.58398 33.0441 5.44087C34.0053 5.32762 34.9903 5.41722 36.013 5.41722V6.12034C36.013 8.09154 36.013 10.0627 36.013 12.0327C36.013 13.0494 36.4597 13.5074 37.4811 13.5795C40.8214 13.8147 43.193 16.1331 43.4414 19.4284C43.4754 20.0128 43.7362 20.5614 44.1692 20.9591C45.9121 22.6615 47.6388 24.3826 49.3641 26.1049C50.1283 26.8677 50.1371 27.5011 49.3905 28.2553C48.4682 29.1886 47.5409 30.1219 46.5935 31.0266C45.4378 32.1354 44.0199 32.1155 42.8592 31.0005C42.4388 30.5961 42.0398 30.1692 41.6044 29.7822C39.7899 28.1744 37.7233 27.1216 35.23 27.4439C34.0931 27.592 32.9713 28.0226 31.8959 28.4394C30.4943 28.9795 29.1354 28.9945 27.7476 28.4519C27.3008 28.2777 26.8692 28.0674 26.4099 27.9255C25.7537 27.7226 25.135 27.9952 24.8753 28.5477C24.8042 28.6877 24.7617 28.8402 24.7502 28.9965C24.7388 29.1529 24.7585 29.3099 24.8084 29.4586C24.8583 29.6073 24.9374 29.7448 25.041 29.8631C25.1447 29.9814 25.2709 30.0783 25.4124 30.1481C27.2281 31.0963 29.1391 31.6414 31.2071 31.2121C31.6676 31.1175 31.8834 31.2382 32.1055 31.6053C33.3151 33.5964 34.9 35.2528 36.678 36.766C37.988 37.8798 39.2692 39.0707 40.3446 40.401C42.2205 42.7207 43.2883 45.4348 43.7401 48.4165L20.8612 48.4153ZM53.5175 64.1127H11.2305C11.2303 64.046 11.2354 63.9795 11.2456 63.9136C11.9257 61.0638 14.3889 59.1735 17.4945 59.1573C20.6002 59.1411 23.7259 59.1573 26.8428 59.1573C27.0307 59.1635 27.2188 59.1598 27.4062 59.1461C28.1039 59.0714 28.5971 58.5662 28.6083 57.9303C28.6196 57.2944 28.1064 56.7468 27.3799 56.6771C27.1929 56.6597 27.0035 56.6684 26.8152 56.6684H17.3163C17.3163 55.2871 17.3163 53.9841 17.3163 52.6862C17.3163 51.3397 17.7141 50.944 19.0731 50.944H41.6056C43.0688 50.944 44.5331 50.934 45.9975 50.944C46.9398 50.9527 47.4179 51.4418 47.4367 52.3726C47.4505 53.016 47.4367 53.6594 47.4367 54.3027V56.6672C44.188 56.6672 41.0372 56.6672 37.8751 56.6672C37.6046 56.6592 37.3342 56.6835 37.0695 56.7393C36.8024 56.8043 36.5658 56.9583 36.3995 57.1755C36.2332 57.3928 36.1473 57.6601 36.156 57.9328C36.1949 58.5015 36.4848 58.9184 37.0545 59.0739C37.3184 59.1346 37.5893 59.1605 37.86 59.1511C40.8088 59.1511 43.7576 59.1511 46.7064 59.1586C47.2915 59.1535 47.8763 59.1872 48.4569 59.2593C50.9753 59.6053 53.1938 61.7433 53.5175 64.1127ZM28.4465 11.4179C28.2344 11.4802 28.055 11.5424 27.8755 11.5884C23.293 12.905 19.7983 15.613 17.5409 19.7756C15.67 23.2252 15.2823 27.0233 15.2948 30.8674C15.3086 33.9026 16.0615 36.8146 16.9625 39.6917C17.0265 39.8946 17.0742 40.1024 17.1356 40.3301H12.2419C10.1351 33.859 9.92677 28.1346 11.7638 21.585C13.7037 14.6709 18.201 9.81136 24.7197 6.77616C26.0842 6.13416 27.5459 5.7192 29.0463 5.54789C28.1077 7.46558 28.6585 9.45047 28.4465 11.4179Z" fill="#292929"/>
<path d="M37.407 21.5609C37.8249 21.5609 38.2452 21.5846 38.6618 21.5547C39.3909 21.5024 39.9054 20.9698 39.9016 20.3103C39.8978 19.6507 39.3808 19.1143 38.6468 19.0857C37.8123 19.0521 36.9741 19.0509 36.1372 19.0857C35.8083 19.09 35.4942 19.2221 35.2626 19.4537C35.031 19.6853 34.9003 19.9978 34.8987 20.324C34.8987 20.9798 35.4207 21.5024 36.1535 21.5522C36.5688 21.5846 36.9892 21.5622 37.407 21.5609Z" fill="#292929"/>
<path d="M31.1342 57.1571C31.1315 57.4017 31.2021 57.6416 31.3369 57.8464C31.4718 58.0512 31.6649 58.2117 31.8918 58.3076C32.1187 58.4035 32.3692 58.4304 32.6116 58.385C32.8539 58.3396 33.0772 58.2238 33.2532 58.0525C33.4292 57.8811 33.55 57.6617 33.6001 57.4222C33.6503 57.1827 33.6277 56.9339 33.5352 56.7071C33.4427 56.4804 33.2843 56.286 33.0803 56.1485C32.8763 56.0111 32.6357 55.9368 32.3891 55.9351C32.0624 55.9424 31.7509 56.0728 31.5178 56.2998C31.2847 56.5268 31.1476 56.8334 31.1342 57.1571Z" fill="#292929"/>
<rect x="50.2732" y="18.417" width="4.5462" height="1.52892" rx="0.76446" transform="rotate(-120 50.2732 18.417)" fill="#292929"/>
<rect x="57.6001" y="16.0459" width="4.5462" height="1.52892" rx="0.76446" transform="rotate(-90 57.6001 16.0459)" fill="#292929"/>
<rect x="64.2461" y="18.9648" width="4.5462" height="1.52892" rx="0.76446" transform="rotate(-56.0829 64.2461 18.9648)" fill="#292929"/>
<path d="M73.2714 53.6313C73.1717 53.6889 73.0615 53.726 72.9473 53.7406C72.8331 53.7552 72.7171 53.7469 72.6061 53.7162C72.4951 53.6855 72.3914 53.6331 72.3008 53.5619C72.2103 53.4907 72.1349 53.4022 72.0789 53.3016C71.9765 53.1015 71.9534 52.8701 72.0143 52.6538C72.0752 52.4374 72.2157 52.2521 72.4074 52.1349C72.5076 52.0781 72.6181 52.0417 72.7324 52.0281C72.8468 52.0144 72.9627 52.0236 73.0735 52.0552C73.1842 52.0867 73.2876 52.14 73.3775 52.2119C73.4674 52.2838 73.5422 52.3729 73.5974 52.474C73.7063 52.671 73.7332 52.903 73.6722 53.1196C73.6112 53.3363 73.4671 53.5201 73.2714 53.6313Z" fill="#292929"/>
<path fill-rule="evenodd" clip-rule="evenodd" d="M57.7043 38.3906C56.3604 38.8208 55.1957 38.6364 54.3428 37.5255C53.478 36.3973 53.5793 35.2155 54.3533 34.0722C53.4263 33.5721 52.6689 32.977 52.0606 32.3218C52.5954 32.0613 53.0851 31.7225 53.5146 31.3202C54.1554 31.9506 54.9314 32.4345 55.7892 32.732L55.8092 32.7375C56.0156 32.793 56.2354 32.771 56.427 32.6755C57.3034 32.1857 58.1723 31.6818 59.0409 31.178C59.3474 31.0002 59.6539 30.8224 59.9607 30.6453C60.2463 30.4804 60.5321 30.3161 60.818 30.1518C61.7231 29.6314 62.6281 29.111 63.5232 28.5745C63.7069 28.4563 63.8388 28.2727 63.8921 28.0609C64.2207 26.2591 63.8251 24.6279 62.7052 23.1673C61.9185 22.1566 60.8363 21.4162 59.6092 21.049C59.5485 21.0308 59.4876 21.0136 59.4265 20.9974C58.2512 20.6838 57.0079 20.7248 55.8537 21.1174C54.9257 21.43 54.1088 21.9581 53.4502 22.6353C53.0195 22.2437 52.5307 21.9149 51.9983 21.6632C53.8113 19.6608 56.5459 18.6751 59.3304 19.1983C62.8233 19.8553 65.9292 23.0045 65.747 27.476C65.7904 27.4756 65.8337 27.4756 65.8768 27.4756H65.8768C65.9594 27.4756 66.0416 27.4756 66.1232 27.4732C67.3076 27.4418 68.3359 28.1207 68.8003 29.2496C69.0002 29.7577 69.0428 30.3142 68.9225 30.8468C68.8023 31.3795 68.5246 31.8637 68.1257 32.2365C67.8726 32.4698 67.899 32.6249 68.0558 32.8861C70.5429 37.0447 73.9258 40.5964 77.9585 43.2828C78.1591 43.4065 78.3935 43.464 78.6286 43.4471C80.5872 43.2743 82.2498 43.8716 83.586 45.3199C83.7673 45.5158 83.9099 45.5337 84.1447 45.4492C84.9278 45.1684 85.7839 45.1667 86.5681 45.4443C87.3523 45.722 88.0166 46.2619 88.4486 46.9728C88.9438 47.7901 89.4153 48.6219 89.8864 49.4531L89.9277 49.526C90.2269 50.0548 90.0961 50.5121 89.5903 50.8232C89.4338 50.9189 89.2745 51.009 89.1152 51.0993C89.0355 51.1444 88.9557 51.1895 88.8763 51.2354L62.9046 66.2302C62.0576 66.7192 61.707 66.631 61.2263 65.7741C61.0833 65.5199 60.9355 65.2675 60.7877 65.0152C60.3862 64.3296 59.9846 63.6438 59.6782 62.9191C59.1028 61.5476 59.5731 59.9443 60.7042 58.9857C60.9058 58.8141 60.9695 58.6781 60.8843 58.4037C60.3054 56.5332 60.6212 54.8117 61.7345 53.2129C61.8699 53.0205 61.9417 52.7905 61.9399 52.5551C61.6825 48.3901 60.6178 44.3147 58.8052 40.5559C58.5631 40.0484 58.304 39.5493 58.0437 39.0477L58.0436 39.0476C57.9303 38.8294 57.8168 38.6106 57.7043 38.3906ZM62.5568 57.8188L62.9972 57.5645L68.7844 54.2233C68.9308 54.1315 69.0888 54.0595 69.2541 54.0093C69.4519 53.9561 69.6623 53.9772 69.8457 54.0684C70.0291 54.1597 70.1728 54.3149 70.2497 54.5047C70.328 54.6863 70.3408 54.8894 70.286 55.0793C70.2311 55.2693 70.112 55.4343 69.949 55.5461C69.8289 55.627 69.7048 55.7017 69.5771 55.7699L62.2116 60.0223C61.3744 60.5057 60.939 61.3814 61.2763 62.2209C61.4933 62.7581 61.8042 63.2575 62.1149 63.7565L62.1149 63.7565C62.252 63.9767 62.3891 64.1969 62.518 64.4201L88.0259 49.6931C87.9096 49.4916 87.795 49.291 87.681 49.0914C87.4547 48.6952 87.2308 48.3032 87.0006 47.9171C86.4468 46.9962 85.3467 46.7014 84.3977 47.2152C84.1773 47.3345 83.9611 47.4619 83.7451 47.5893L83.7451 47.5893L83.7447 47.5896C83.6368 47.6532 83.529 47.7168 83.4207 47.7793L76.8067 51.5979C76.322 51.8777 75.9419 51.8547 75.6173 51.539C75.1804 51.1138 75.3183 50.457 75.9334 50.1009C77.8977 48.9614 79.8649 47.8257 81.8348 46.6937L82.2587 46.4489C82.2287 46.4143 82.2031 46.3837 82.18 46.3561C82.134 46.3011 82.098 46.258 82.0572 46.2196C80.7579 44.9985 78.8625 44.8051 77.2352 45.7426C72.974 48.1976 68.715 50.6565 64.4583 53.1194C64.196 53.2721 63.9474 53.4472 63.7152 53.6426C62.5298 54.6287 62.014 56.4637 62.5568 57.8188ZM59.1896 37.523C61.6721 41.8749 63.1356 46.5516 63.6252 51.5671L76.2879 44.2563C72.2366 41.3853 68.8452 37.682 66.3409 33.3942L59.1896 37.523ZM61.8527 33.9622L66.623 31.2081C67.2589 30.841 67.4293 30.2285 67.0702 29.6742C66.7394 29.1637 66.1699 29.0677 65.5456 29.4271L57.5789 34.0267C57.423 34.1167 57.2665 34.2056 57.11 34.2946C56.7383 34.5058 56.3667 34.7171 56.0031 34.9424C55.4368 35.2945 55.3226 35.9577 55.7155 36.4784C56.0482 36.9176 56.5912 36.999 57.1528 36.6768C58.723 35.7735 60.2897 34.8687 61.8527 33.9622Z" fill="#292929"/>
</svg>
