<svg width="80" height="80" viewBox="0 0 80 80" fill="none" xmlns="http://www.w3.org/2000/svg">
<path d="M16.668 43.3333C16.668 46.3975 17.2715 49.4317 18.4441 52.2626C19.6167 55.0935 21.3354 57.6658 23.5021 59.8325C25.6688 61.9992 28.2411 63.7179 31.072 64.8905C33.903 66.0631 36.9371 66.6667 40.0013 66.6667C43.0655 66.6667 46.0997 66.0631 48.9306 64.8905C51.7615 63.7179 54.3338 61.9992 56.5005 59.8325C58.6672 57.6658 60.3859 55.0935 61.5585 52.2626C62.7311 49.4317 63.3346 46.3975 63.3346 43.3333C63.3346 40.2692 62.7311 37.235 61.5585 34.4041C60.3859 31.5731 58.6672 29.0009 56.5005 26.8342C54.3338 24.6675 51.7615 22.9488 48.9306 21.7761C46.0997 20.6035 43.0655 20 40.0013 20C36.9371 20 33.903 20.6035 31.072 21.7761C28.2411 22.9488 25.6688 24.6675 23.5021 26.8342C21.3354 29.0009 19.6167 31.5731 18.4441 34.4041C17.2715 37.235 16.668 40.2692 16.668 43.3333Z" stroke="#806E2D" stroke-width="4" stroke-linecap="round" stroke-linejoin="round"/>
<path d="M40 33.333V43.333H46.6667" stroke="#806E2D" stroke-width="4" stroke-linecap="round" stroke-linejoin="round"/>
<path d="M23.3346 13.333L14.168 19.9997" stroke="#806E2D" stroke-width="4" stroke-linecap="round" stroke-linejoin="round"/>
<path d="M56.668 13.333L65.8346 19.9997" stroke="#806E2D" stroke-width="4" stroke-linecap="round" stroke-linejoin="round"/>
</svg>
