<svg width="80" height="80" viewBox="0 0 80 80" fill="none" xmlns="http://www.w3.org/2000/svg">
<path d="M10 30.0003C10 26.4641 11.4048 23.0727 13.9052 20.5722C16.4057 18.0717 19.7971 16.667 23.3333 16.667H56.6667C60.2029 16.667 63.5943 18.0717 66.0948 20.5722C68.5952 23.0727 70 26.4641 70 30.0003V50.0003C70 53.5365 68.5952 56.9279 66.0948 59.4284C63.5943 61.9289 60.2029 63.3337 56.6667 63.3337H23.3333C19.7971 63.3337 16.4057 61.9289 13.9052 59.4284C11.4048 56.9279 10 53.5365 10 50.0003V30.0003Z" stroke="#806E2D" stroke-width="4" stroke-linecap="round" stroke-linejoin="round"/>
<path d="M33.332 30L49.9987 40L33.332 50V30Z" stroke="#806E2D" stroke-width="4" stroke-linecap="round" stroke-linejoin="round"/>
</svg>
